<svg width="628" height="156" viewBox="0 0 628 156" fill="none" xmlns="http://www.w3.org/2000/svg">
<path d="M27.3125 99.1484C19.0625 99.1484 12.4375 96.1484 7.4375 90.1484C2.47917 84.1068 0 75.2109 0 63.4609C0 51.5859 2.52083 42.6068 7.5625 36.5234C12.6458 30.4401 19.3333 27.3984 27.625 27.3984C31.125 27.3984 34.1875 27.8776 36.8125 28.8359C39.4375 29.7526 41.6875 31.0026 43.5625 32.5859C45.4792 34.1693 47.1042 35.9401 48.4375 37.8984H49.125C48.9167 36.6068 48.6667 34.7526 48.375 32.3359C48.125 29.8776 48 27.6068 48 25.5234V0.648438H62.75V97.8984H51.25L48.625 88.4609H48C46.75 90.4609 45.1667 92.2734 43.25 93.8984C41.375 95.4818 39.125 96.7526 36.5 97.7109C33.9167 98.6693 30.8542 99.1484 27.3125 99.1484ZM31.4375 87.2109C37.7292 87.2109 42.1667 85.3984 44.75 81.7734C47.3333 78.1484 48.6667 72.7109 48.75 65.4609V63.5234C48.75 55.7734 47.5 49.8359 45 45.7109C42.5 41.5443 37.9375 39.4609 31.3125 39.4609C26.0208 39.4609 21.9792 41.6068 19.1875 45.8984C16.4375 50.1484 15.0625 56.0859 15.0625 63.7109C15.0625 71.3359 16.4375 77.1693 19.1875 81.2109C21.9792 85.2109 26.0625 87.2109 31.4375 87.2109Z" fill="#506690"/>
<path d="M114.777 27.3984C123.527 27.3984 130.132 29.3359 134.59 33.2109C139.09 37.0859 141.34 43.1276 141.34 51.3359V97.8984H130.902L128.09 88.0859H127.59C125.632 90.5859 123.611 92.6484 121.527 94.2734C119.444 95.8984 117.027 97.1068 114.277 97.8984C111.569 98.7318 108.257 99.1484 104.34 99.1484C100.215 99.1484 96.5275 98.3984 93.2775 96.8984C90.0275 95.3568 87.465 93.0234 85.59 89.8984C83.715 86.7734 82.7775 82.8151 82.7775 78.0234C82.7775 70.8984 85.4233 65.5443 90.715 61.9609C96.0483 58.3776 104.09 56.3984 114.84 56.0234L126.84 55.5859V51.9609C126.84 47.1693 125.715 43.7526 123.465 41.7109C121.257 39.6693 118.132 38.6484 114.09 38.6484C110.632 38.6484 107.277 39.1484 104.027 40.1484C100.777 41.1484 97.6108 42.3776 94.5275 43.8359L89.7775 33.4609C93.1525 31.6693 96.9858 30.2109 101.277 29.0859C105.611 27.9609 110.111 27.3984 114.777 27.3984ZM126.777 64.8359L117.84 65.1484C110.507 65.3984 105.361 66.6484 102.402 68.8984C99.4442 71.1484 97.965 74.2318 97.965 78.1484C97.965 81.5651 98.9858 84.0651 101.027 85.6484C103.069 87.1901 105.757 87.9609 109.09 87.9609C114.173 87.9609 118.382 86.5234 121.715 83.6484C125.09 80.7318 126.777 76.4609 126.777 70.8359V64.8359Z" fill="#506690"/>
<path d="M191.492 87.2734C193.409 87.2734 195.305 87.1068 197.18 86.7734C199.055 86.3984 200.763 85.9609 202.305 85.4609V96.5859C200.68 97.2943 198.576 97.8984 195.992 98.3984C193.409 98.8984 190.722 99.1484 187.93 99.1484C184.013 99.1484 180.492 98.5026 177.367 97.2109C174.242 95.8776 171.763 93.6068 169.93 90.3984C168.097 87.1901 167.18 82.7526 167.18 77.0859V39.8984H157.742V33.3359L167.867 28.1484L172.68 13.3359H181.93V28.7109H201.742V39.8984H181.93V76.8984C181.93 80.3984 182.805 83.0026 184.555 84.7109C186.305 86.4193 188.617 87.2734 191.492 87.2734Z" fill="#506690"/>
<path d="M247.333 27.3984C256.083 27.3984 262.687 29.3359 267.145 33.2109C271.645 37.0859 273.895 43.1276 273.895 51.3359V97.8984H263.458L260.645 88.0859H260.145C258.187 90.5859 256.166 92.6484 254.083 94.2734C251.999 95.8984 249.583 97.1068 246.833 97.8984C244.124 98.7318 240.812 99.1484 236.895 99.1484C232.77 99.1484 229.083 98.3984 225.833 96.8984C222.583 95.3568 220.02 93.0234 218.145 89.8984C216.27 86.7734 215.333 82.8151 215.333 78.0234C215.333 70.8984 217.978 65.5443 223.27 61.9609C228.603 58.3776 236.645 56.3984 247.395 56.0234L259.395 55.5859V51.9609C259.395 47.1693 258.27 43.7526 256.02 41.7109C253.812 39.6693 250.687 38.6484 246.645 38.6484C243.187 38.6484 239.833 39.1484 236.583 40.1484C233.333 41.1484 230.166 42.3776 227.083 43.8359L222.333 33.4609C225.708 31.6693 229.541 30.2109 233.833 29.0859C238.166 27.9609 242.666 27.3984 247.333 27.3984ZM259.333 64.8359L250.395 65.1484C243.062 65.3984 237.916 66.6484 234.958 68.8984C231.999 71.1484 230.52 74.2318 230.52 78.1484C230.52 81.5651 231.541 84.0651 233.583 85.6484C235.624 87.1901 238.312 87.9609 241.645 87.9609C246.728 87.9609 250.937 86.5234 254.27 83.6484C257.645 80.7318 259.333 76.4609 259.333 70.8359V64.8359Z" fill="#506690"/>
<path d="M333.797 27.3984C342.006 27.3984 348.589 30.3984 353.547 36.3984C358.547 42.3984 361.047 51.3151 361.047 63.1484C361.047 70.9818 359.881 77.5859 357.547 82.9609C355.256 88.2943 352.027 92.3359 347.86 95.0859C343.735 97.7943 338.922 99.1484 333.422 99.1484C329.922 99.1484 326.881 98.6901 324.297 97.7734C321.714 96.8568 319.506 95.6693 317.672 94.2109C315.839 92.7109 314.297 91.0859 313.047 89.3359H312.172C312.381 91.0026 312.568 92.8568 312.735 94.8984C312.943 96.8984 313.047 98.7318 313.047 100.398V128.586H298.297V28.7109H310.297L312.36 38.2734H313.047C314.339 36.3151 315.902 34.5026 317.735 32.8359C319.61 31.1693 321.86 29.8568 324.485 28.8984C327.152 27.8984 330.256 27.3984 333.797 27.3984ZM329.86 39.3984C325.818 39.3984 322.568 40.2109 320.11 41.8359C317.693 43.4193 315.922 45.8151 314.797 49.0234C313.714 52.2318 313.131 56.2526 313.047 61.0859V63.1484C313.047 68.2734 313.568 72.6276 314.61 76.2109C315.693 79.7526 317.464 82.4609 319.922 84.3359C322.422 86.1693 325.797 87.0859 330.047 87.0859C333.631 87.0859 336.589 86.1068 338.922 84.1484C341.297 82.1901 343.068 79.3984 344.235 75.7734C345.402 72.1484 345.985 67.8776 345.985 62.9609C345.985 55.5026 344.652 49.7109 341.985 45.5859C339.36 41.4609 335.318 39.3984 329.86 39.3984Z" fill="#506690"/>
<path d="M443.138 63.1484C443.138 68.8984 442.388 74.0026 440.888 78.4609C439.388 82.9193 437.2 86.6901 434.325 89.7734C431.45 92.8151 427.992 95.1484 423.95 96.7734C419.908 98.3568 415.346 99.1484 410.263 99.1484C405.513 99.1484 401.158 98.3568 397.2 96.7734C393.242 95.1484 389.804 92.8151 386.888 89.7734C384.013 86.6901 381.783 82.9193 380.2 78.4609C378.617 74.0026 377.825 68.8984 377.825 63.1484C377.825 55.5234 379.138 49.0651 381.763 43.7734C384.429 38.4401 388.221 34.3776 393.138 31.5859C398.054 28.7943 403.908 27.3984 410.7 27.3984C417.075 27.3984 422.7 28.7943 427.575 31.5859C432.45 34.3776 436.263 38.4401 439.013 43.7734C441.763 49.1068 443.138 55.5651 443.138 63.1484ZM392.95 63.1484C392.95 68.1901 393.554 72.5026 394.763 76.0859C396.013 79.6693 397.929 82.4193 400.513 84.3359C403.096 86.2109 406.429 87.1484 410.513 87.1484C414.596 87.1484 417.929 86.2109 420.513 84.3359C423.096 82.4193 424.992 79.6693 426.2 76.0859C427.408 72.5026 428.013 68.1901 428.013 63.1484C428.013 58.1068 427.408 53.8359 426.2 50.3359C424.992 46.7943 423.096 44.1068 420.513 42.2734C417.929 40.3984 414.575 39.4609 410.45 39.4609C404.367 39.4609 399.929 41.5026 397.138 45.5859C394.346 49.6693 392.95 55.5234 392.95 63.1484Z" fill="#506690"/>
<path d="M478.54 28.7109V97.8984H463.853V28.7109H478.54ZM471.29 2.21094C473.54 2.21094 475.478 2.8151 477.103 4.02344C478.769 5.23177 479.603 7.3151 479.603 10.2734C479.603 13.1901 478.769 15.2734 477.103 16.5234C475.478 17.7318 473.54 18.3359 471.29 18.3359C468.957 18.3359 466.978 17.7318 465.353 16.5234C463.769 15.2734 462.978 13.1901 462.978 10.2734C462.978 7.3151 463.769 5.23177 465.353 4.02344C466.978 2.8151 468.957 2.21094 471.29 2.21094Z" fill="#506690"/>
<path d="M539.505 27.3984C547.297 27.3984 553.359 29.4193 557.693 33.4609C562.068 37.4609 564.255 43.8984 564.255 52.7734V97.8984H549.568V55.5234C549.568 50.1484 548.463 46.1276 546.255 43.4609C544.047 40.7526 540.63 39.3984 536.005 39.3984C529.297 39.3984 524.63 41.4609 522.005 45.5859C519.422 49.7109 518.13 55.6901 518.13 63.5234V97.8984H503.443V28.7109H514.88L516.943 38.0859H517.755C519.255 35.6693 521.109 33.6901 523.318 32.1484C525.568 30.5651 528.068 29.3776 530.818 28.5859C533.609 27.7943 536.505 27.3984 539.505 27.3984Z" fill="#506690"/>
<path d="M614.407 87.2734C616.324 87.2734 618.22 87.1068 620.095 86.7734C621.97 86.3984 623.678 85.9609 625.22 85.4609V96.5859C623.595 97.2943 621.491 97.8984 618.907 98.3984C616.324 98.8984 613.637 99.1484 610.845 99.1484C606.928 99.1484 603.407 98.5026 600.282 97.2109C597.157 95.8776 594.678 93.6068 592.845 90.3984C591.012 87.1901 590.095 82.7526 590.095 77.0859V39.8984H580.657V33.3359L590.782 28.1484L595.595 13.3359H604.845V28.7109H624.657V39.8984H604.845V76.8984C604.845 80.3984 605.72 83.0026 607.47 84.7109C609.22 86.4193 611.532 87.2734 614.407 87.2734Z" fill="#506690"/>
<path d="M399.703 151.992C399.703 150.711 400.031 149.812 400.688 149.297C401.359 148.766 402.172 148.5 403.125 148.5C404.078 148.5 404.891 148.766 405.562 149.297C406.25 149.812 406.594 150.711 406.594 151.992C406.594 153.242 406.25 154.148 405.562 154.711C404.891 155.258 404.078 155.531 403.125 155.531C402.172 155.531 401.359 155.258 400.688 154.711C400.031 154.148 399.703 153.242 399.703 151.992Z" fill="#506690"/>
<path d="M433.029 147.492C433.029 149.195 432.615 150.633 431.787 151.805C430.959 152.977 429.748 153.867 428.154 154.477C426.576 155.07 424.639 155.367 422.342 155.367C420.529 155.367 418.967 155.234 417.654 154.969C416.358 154.719 415.131 154.328 413.975 153.797V149.039C415.209 149.617 416.592 150.117 418.123 150.539C419.67 150.961 421.131 151.172 422.506 151.172C424.318 151.172 425.623 150.891 426.42 150.328C427.217 149.75 427.615 148.984 427.615 148.031C427.615 147.469 427.451 146.969 427.123 146.531C426.811 146.078 426.217 145.617 425.342 145.148C424.483 144.664 423.217 144.086 421.545 143.414C419.904 142.758 418.522 142.102 417.397 141.445C416.272 140.789 415.42 140 414.842 139.078C414.264 138.141 413.975 136.945 413.975 135.492C413.975 133.195 414.881 131.453 416.693 130.266C418.522 129.062 420.936 128.461 423.936 128.461C425.529 128.461 427.029 128.625 428.436 128.953C429.858 129.266 431.248 129.727 432.608 130.336L430.873 134.484C429.701 133.969 428.522 133.547 427.334 133.219C426.162 132.875 424.967 132.703 423.748 132.703C422.326 132.703 421.24 132.922 420.49 133.359C419.756 133.797 419.389 134.422 419.389 135.234C419.389 135.844 419.568 136.359 419.928 136.781C420.287 137.203 420.904 137.625 421.779 138.047C422.67 138.469 423.904 138.992 425.483 139.617C427.029 140.211 428.365 140.836 429.49 141.492C430.631 142.133 431.506 142.922 432.115 143.859C432.725 144.797 433.029 146.008 433.029 147.492Z" fill="#506690"/>
<path d="M463.871 141.867C463.871 144.023 463.59 145.938 463.027 147.609C462.465 149.281 461.645 150.695 460.567 151.852C459.488 152.992 458.192 153.867 456.676 154.477C455.16 155.07 453.449 155.367 451.543 155.367C449.762 155.367 448.129 155.07 446.645 154.477C445.16 153.867 443.871 152.992 442.777 151.852C441.699 150.695 440.863 149.281 440.27 147.609C439.676 145.938 439.379 144.023 439.379 141.867C439.379 139.008 439.871 136.586 440.856 134.602C441.856 132.602 443.277 131.078 445.121 130.031C446.965 128.984 449.16 128.461 451.707 128.461C454.098 128.461 456.207 128.984 458.035 130.031C459.863 131.078 461.293 132.602 462.324 134.602C463.356 136.602 463.871 139.023 463.871 141.867ZM445.051 141.867C445.051 143.758 445.277 145.375 445.731 146.719C446.199 148.062 446.918 149.094 447.887 149.812C448.856 150.516 450.106 150.867 451.637 150.867C453.168 150.867 454.418 150.516 455.387 149.812C456.356 149.094 457.067 148.062 457.52 146.719C457.973 145.375 458.199 143.758 458.199 141.867C458.199 139.977 457.973 138.375 457.52 137.062C457.067 135.734 456.356 134.727 455.387 134.039C454.418 133.336 453.16 132.984 451.613 132.984C449.332 132.984 447.668 133.75 446.621 135.281C445.574 136.812 445.051 139.008 445.051 141.867Z" fill="#506690"/>
<path d="M485.08 133.148H478.776V154.898H473.268V133.148H469.026V130.5L473.268 128.883V127.078C473.268 124.875 473.612 123.125 474.299 121.828C475.002 120.531 476.002 119.602 477.299 119.039C478.612 118.461 480.174 118.172 481.987 118.172C483.174 118.172 484.26 118.273 485.244 118.477C486.229 118.664 487.057 118.883 487.729 119.133L486.299 123.305C485.768 123.133 485.174 122.977 484.518 122.836C483.862 122.68 483.158 122.602 482.408 122.602C481.158 122.602 480.237 122.992 479.643 123.773C479.065 124.555 478.776 125.695 478.776 127.195V128.953H485.08V133.148Z" fill="#506690"/>
<path d="M501.086 150.914C501.805 150.914 502.516 150.852 503.219 150.727C503.922 150.586 504.563 150.422 505.141 150.234V154.406C504.532 154.672 503.742 154.898 502.774 155.086C501.805 155.273 500.797 155.367 499.75 155.367C498.282 155.367 496.961 155.125 495.789 154.641C494.617 154.141 493.688 153.289 493 152.086C492.313 150.883 491.969 149.219 491.969 147.094V133.148H488.43V130.688L492.227 128.742L494.032 123.188H497.5V128.953H504.93V133.148H497.5V147.023C497.5 148.336 497.828 149.312 498.485 149.953C499.141 150.594 500.008 150.914 501.086 150.914Z" fill="#506690"/>
<path d="M533.545 154.875L530.264 142.805C530.108 142.211 529.92 141.492 529.702 140.648C529.483 139.805 529.264 138.938 529.045 138.047C528.827 137.141 528.623 136.305 528.436 135.539C528.264 134.773 528.131 134.18 528.037 133.758H527.85C527.772 134.18 527.647 134.773 527.475 135.539C527.303 136.305 527.108 137.141 526.889 138.047C526.67 138.953 526.452 139.836 526.233 140.695C526.03 141.555 525.842 142.289 525.67 142.898L522.225 154.875H516.178L508.913 128.93H514.491L517.866 141.82C518.084 142.695 518.295 143.641 518.498 144.656C518.717 145.672 518.905 146.641 519.061 147.562C519.217 148.484 519.334 149.242 519.412 149.836H519.6C519.662 149.414 519.748 148.883 519.858 148.242C519.967 147.586 520.092 146.906 520.233 146.203C520.373 145.484 520.514 144.812 520.655 144.188C520.795 143.547 520.928 143.031 521.053 142.641L525.037 128.93H531.061L534.881 142.641C535.053 143.234 535.241 143.984 535.444 144.891C535.647 145.781 535.827 146.68 535.983 147.586C536.155 148.477 536.264 149.219 536.311 149.812H536.498C536.561 149.281 536.67 148.562 536.827 147.656C536.998 146.734 537.194 145.758 537.412 144.727C537.631 143.68 537.858 142.711 538.092 141.82L541.537 128.93H547.022L539.709 154.875H533.545Z" fill="#506690"/>
<path d="M563.567 128.461C566.848 128.461 569.325 129.188 570.997 130.641C572.684 132.094 573.528 134.359 573.528 137.438V154.898H569.614L568.559 151.219H568.372C567.637 152.156 566.879 152.93 566.098 153.539C565.317 154.148 564.411 154.602 563.379 154.898C562.364 155.211 561.122 155.367 559.653 155.367C558.106 155.367 556.723 155.086 555.504 154.523C554.286 153.945 553.325 153.07 552.622 151.898C551.918 150.727 551.567 149.242 551.567 147.445C551.567 144.773 552.559 142.766 554.543 141.422C556.543 140.078 559.559 139.336 563.59 139.195L568.09 139.031V137.672C568.09 135.875 567.668 134.594 566.825 133.828C565.997 133.062 564.825 132.68 563.309 132.68C562.012 132.68 560.754 132.867 559.536 133.242C558.317 133.617 557.129 134.078 555.973 134.625L554.192 130.734C555.458 130.062 556.895 129.516 558.504 129.094C560.129 128.672 561.817 128.461 563.567 128.461ZM568.067 142.5L564.715 142.617C561.965 142.711 560.036 143.18 558.926 144.023C557.817 144.867 557.262 146.023 557.262 147.492C557.262 148.773 557.645 149.711 558.411 150.305C559.176 150.883 560.184 151.172 561.434 151.172C563.34 151.172 564.918 150.633 566.168 149.555C567.434 148.461 568.067 146.859 568.067 144.75V142.5Z" fill="#506690"/>
<path d="M596.307 128.461C596.745 128.461 597.221 128.484 597.737 128.531C598.253 128.578 598.698 128.641 599.073 128.719L598.557 133.875C598.229 133.781 597.823 133.711 597.338 133.664C596.87 133.617 596.448 133.594 596.073 133.594C595.088 133.594 594.151 133.758 593.26 134.086C592.37 134.398 591.581 134.883 590.893 135.539C590.206 136.18 589.667 136.984 589.276 137.953C588.885 138.922 588.69 140.047 588.69 141.328V154.898H583.159V128.953H587.471L588.221 133.523H588.479C588.995 132.602 589.635 131.758 590.401 130.992C591.167 130.227 592.042 129.617 593.026 129.164C594.026 128.695 595.12 128.461 596.307 128.461Z" fill="#506690"/>
<path d="M616.133 128.461C618.446 128.461 620.43 128.938 622.087 129.891C623.743 130.844 625.016 132.195 625.907 133.945C626.797 135.695 627.243 137.789 627.243 140.227V143.18H609.922C609.985 145.695 610.657 147.633 611.938 148.992C613.235 150.352 615.047 151.031 617.376 151.031C619.032 151.031 620.516 150.875 621.829 150.562C623.157 150.234 624.524 149.758 625.93 149.133V153.609C624.633 154.219 623.313 154.664 621.969 154.945C620.626 155.227 619.016 155.367 617.141 155.367C614.594 155.367 612.352 154.875 610.415 153.891C608.493 152.891 606.985 151.406 605.891 149.438C604.813 147.469 604.274 145.023 604.274 142.102C604.274 139.195 604.766 136.727 605.751 134.695C606.735 132.664 608.118 131.117 609.899 130.055C611.68 128.992 613.758 128.461 616.133 128.461ZM616.133 132.609C614.399 132.609 612.993 133.172 611.915 134.297C610.852 135.422 610.227 137.07 610.04 139.242H621.852C621.837 137.945 621.618 136.797 621.196 135.797C620.79 134.797 620.165 134.016 619.321 133.453C618.493 132.891 617.43 132.609 616.133 132.609Z" fill="#506690"/>
</svg>
